<svg width="26" height="26" viewBox="0 0 26 26" fill="none" xmlns="http://www.w3.org/2000/svg">
<path d="M12.9998 2.16669C7.03067 2.16669 2.1665 7.03085 2.1665 13C2.1665 18.9692 7.03067 23.8334 12.9998 23.8334C18.969 23.8334 23.8332 18.9692 23.8332 13C23.8332 7.03085 18.969 2.16669 12.9998 2.16669ZM18.1782 10.5084L12.0357 16.6509C11.884 16.8025 11.6782 16.8892 11.4615 16.8892C11.2448 16.8892 11.039 16.8025 10.8873 16.6509L7.8215 13.585C7.50734 13.2709 7.50734 12.7509 7.8215 12.4367C8.13567 12.1225 8.65567 12.1225 8.96984 12.4367L11.4615 14.9284L17.0298 9.36002C17.344 9.04586 17.864 9.04586 18.1782 9.36002C18.4923 9.67419 18.4923 10.1834 18.1782 10.5084Z" fill="#FF6B72"/>
</svg>
